{"title":"Dr. Seuss The Lorax 2012 Cam XviD Feel-Free","uid":7096911,"size":833055355,"categoryP":"video","categoryS":"movies","magnet":"?xt=urn:btih:a21e4d407cb3191bdc15df8b30e67e8818f651f8&amp;dn=Dr.+Seuss+The+Lorax+2012+Cam+XviD+Feel-Free&amp;tr=udp%3A%2F%2Ftracker.openbittorrent.com%3A80&amp;tr=udp%3A%2F%2Fopen.demonii.com%3A1337&amp;tr=udp%3A%2F%2Ftracker.coppersurfer.tk%3A6969&amp;tr=udp%3A%2F%2Fexodus.desync.com%3A6969","seeders":0,"leechers":1,"uploader":"Mon.Nerd","files":9,"time":1331585073,"description":"Genre:Animation | Family | Fantasy\nLanguage:English\nIMDb:http://www.imdb.com/title/tt1482459/\nSource:LUM1X/INSPiRAL Thanks!\nEncoder:Tony\n\nFormat : AVI\nFormat/Info : Audio Video Interleave\nFile size : 793 MiB\nDuration : 1h 18mn\nOverall bit rate : 1 412 Kbps\n\nVideo\nID : 0\nFormat : MPEG-4 Visual\nFormat profile : Advanced Simple@L5\nFormat settings, BVOP : 2\nFormat settings, QPel : No\nFormat settings, GMC : No warppoints\nFormat settings, Matrix : Default (H.263)\nMuxing mode : Packed bitstream\nCodec ID : XVID\nCodec ID/Hint : XviD\nDuration : 1h 18mn\nBit rate : 1 274 Kbps\nWidth : 720 pixels\nHeight : 304 pixels\nDisplay aspect ratio : 2.35:1\nFrame rate : 25.000 fps\nColor space : YUV\nChroma subsampling : 4:2:0\nBit depth : 8 bits\nScan type : Progressive\nCompression mode : Lossy\nBits/(Pixel*Frame) : 0.233\nStream size : 716 MiB (90%)\nWriting library : XviD 64 &lt;a href=&quot;\nhttp://img842.imageshack.us/img842/6100/vlcsnap2012031221h18m38.png&quot; rel=&quot;nofollow&quot; target=&quot;_NEW&quot;&gt;\nhttp://img842.imageshack.us/img842/6100/vlcsnap2012031221h18m38.png&lt;/a&gt; &lt;a href=&quot;\nhttp://img193.imageshack.us/img193/1449/vlcsnap2012031221h19m08.png&quot; rel=&quot;nofollow&quot; target=&quot;_NEW&quot;&gt;\nhttp://img193.imageshack.us/img193/1449/vlcsnap2012031221h19m08.png&lt;/a&gt;\n\nAudio\nID : 1\nFormat : MPEG Audio\nFormat version : Version 1\nFormat profile : Layer 3\nMode : Joint stereo\nMode extension : MS Stereo\nCodec ID : 55\nCodec ID/Hint : MP3\nDuration : 1h 18mn\nBit rate mode : Constant\nBit rate : 128 Kbps\nChannel(s) : 2 channels\nSampling rate : 44.1 KHz\nCompression mode : Lossy\nStream size : 71.9 MiB (9%)\nAlignment : Split accross interleaves\nInterleave, duration : 40 ms (1.00 video frame)\nInterleave, preload duration : 500 ms\n\n\nPlot:\nA 12-year-old boy searches for the one thing that will enable him to win the affection of the girl of his dreams. To find it he must discover the story of the Lorax, the grumpy yet charming creature who fights to protect his world.","torrent":{"xt":"urn:btih:a21e4d407cb3191bdc15df8b30e67e8818f651f8","amp;dn":"Dr.+Seuss+The+Lorax+2012+Cam+XviD+Feel-Free","amp;tr":["udp%3A%2F%2Ftracker.openbittorrent.com%3A80","udp%3A%2F%2Fopen.demonii.com%3A1337","udp%3A%2F%2Ftracker.coppersurfer.tk%3A6969","udp%3A%2F%2Fexodus.desync.com%3A6969"],"infoHash":"a21e4d407cb3191bdc15df8b30e67e8818f651f8","infoHashBuffer":{"type":"Buffer","data":[162,30,77,64,124,179,25,27,220,21,223,139,48,230,126,136,24,246,81,248]},"announce":[],"urlList":[]}}